<?xml version="1.0" encoding="utf-8"?><svg viewBox="0 0 24 24" xmlns="http://www.w3.org/2000/svg" xmlns:xlink="http://www.w3.org/1999/xlink"><style>:root>svg{display:none}:root>svg:target{display:block}</style><svg viewBox="0 0 65 59.83" aria-hidden="true" id="account" xmlns="http://www.w3.org/2000/svg"><circle fill="none" stroke="#000" stroke-width="2.5" cx="32.72" cy="16.45" r="14.4"/><path fill="none" stroke="#000" stroke-width="2.5" d="M58.63 45.68 40.77 35.57c-6.94-3.61-9.16-3.61-16.49 0L6.42 45.68c-3.17 3.17-4.12 7.75-2.85 11.77h57.92c1.26-4.02.32-8.6-2.85-11.77Z"/></svg><svg viewBox="0 0 65.9 59.83" aria-hidden="true" id="cart" xmlns="http://www.w3.org/2000/svg"><path fill="none" stroke="#000" stroke-width="2.5" d="M61.68 58.19H4.22L1.33 9.51h63.25l-2.9 48.68z"/><path fill="none" stroke="#000" stroke-width="2.5" d="M42.2 16.86V7.83c0-3.06-2.25-6.57-5-6.57h-8.48c-2.75 0-5 3.5-5 6.57v9.03"/><circle cx="42.2" cy="16.86" r="1.95"/><circle cx="23.71" cy="16.86" r="1.95"/></svg><svg viewBox="0 0 16 16" id="cross" xmlns="http://www.w3.org/2000/svg"><path fill-rule="evenodd" d="M3.805 2.862a.667.667 0 1 0-.943.943L7.057 8l-4.195 4.195a.667.667 0 1 0 .943.943L8 8.943l4.195 4.195a.667.667 0 0 0 .943-.943L8.943 8l4.195-4.195a.667.667 0 0 0-.943-.943L8 7.057 3.805 2.862Z" clip-rule="evenodd"/></svg><svg fill="none" viewBox="0 0 24 24" id="cross-thin" xmlns="http://www.w3.org/2000/svg"><path d="m18.75 5.25-13.5 13.5m13.5 0L5.25 5.25" stroke="#000" stroke-linecap="round" stroke-linejoin="round"/></svg><svg class="esearch" viewBox="0 0 65 59.83" fill="none" stroke="#000" stroke-width="2.5" aria-hidden="true" id="search" xmlns="http://www.w3.org/2000/svg"><circle cx="28.18" cy="24.82" r="23.57"/><path d="m43.23 44.26 11.45 14.81"/></svg></svg>